<mxfile host="app.diagrams.net" modified="2024-03-22T15:02:08.809Z" agent="Mozilla/5.0 (X11; Linux s390x; rv:123.0) Gecko/20100101 Firefox/123.0" etag="hrmuHwywFJ3TUgscqubE" version="24.0.7" type="device">
  <diagram name="Page-1" id="2YBvvXClWsGukQMizWep">
    <mxGraphModel dx="1094" dy="648" grid="1" gridSize="10" guides="1" tooltips="1" connect="1" arrows="1" fold="1" page="1" pageScale="1" pageWidth="850" pageHeight="1100" math="0" shadow="0">
      <root>
        <mxCell id="0" />
        <mxCell id="1" parent="0" />
        <mxCell id="aM9ryv3xv72pqoxQDRHE-1" value=":Object" style="shape=umlLifeline;perimeter=lifelinePerimeter;whiteSpace=wrap;html=1;container=0;dropTarget=0;collapsible=0;recursiveResize=0;outlineConnect=0;portConstraint=eastwest;newEdgeStyle={&quot;edgeStyle&quot;:&quot;elbowEdgeStyle&quot;,&quot;elbow&quot;:&quot;vertical&quot;,&quot;curved&quot;:0,&quot;rounded&quot;:0};" parent="1" vertex="1">
          <mxGeometry x="40" y="40" width="100" height="880" as="geometry" />
        </mxCell>
        <mxCell id="aM9ryv3xv72pqoxQDRHE-2" value="" style="html=1;points=[];perimeter=orthogonalPerimeter;outlineConnect=0;targetShapes=umlLifeline;portConstraint=eastwest;newEdgeStyle={&quot;edgeStyle&quot;:&quot;elbowEdgeStyle&quot;,&quot;elbow&quot;:&quot;vertical&quot;,&quot;curved&quot;:0,&quot;rounded&quot;:0};" parent="aM9ryv3xv72pqoxQDRHE-1" vertex="1">
          <mxGeometry x="45" y="70" width="10" height="770" as="geometry" />
        </mxCell>
        <mxCell id="aM9ryv3xv72pqoxQDRHE-3" value="Start" style="html=1;verticalAlign=bottom;startArrow=oval;endArrow=block;startSize=8;edgeStyle=elbowEdgeStyle;elbow=vertical;curved=0;rounded=0;" parent="aM9ryv3xv72pqoxQDRHE-1" target="aM9ryv3xv72pqoxQDRHE-2" edge="1">
          <mxGeometry relative="1" as="geometry">
            <mxPoint x="-15" y="70" as="sourcePoint" />
          </mxGeometry>
        </mxCell>
        <mxCell id="aM9ryv3xv72pqoxQDRHE-5" value="&lt;div&gt;BinaryOperator::&lt;/div&gt;&lt;div&gt;br_plus&lt;/div&gt;" style="shape=umlLifeline;perimeter=lifelinePerimeter;whiteSpace=wrap;html=1;container=0;dropTarget=0;collapsible=0;recursiveResize=0;outlineConnect=0;portConstraint=eastwest;newEdgeStyle={&quot;edgeStyle&quot;:&quot;elbowEdgeStyle&quot;,&quot;elbow&quot;:&quot;vertical&quot;,&quot;curved&quot;:0,&quot;rounded&quot;:0};" parent="1" vertex="1">
          <mxGeometry x="220" y="40" width="100" height="880" as="geometry" />
        </mxCell>
        <mxCell id="aM9ryv3xv72pqoxQDRHE-6" value="" style="html=1;points=[];perimeter=orthogonalPerimeter;outlineConnect=0;targetShapes=umlLifeline;portConstraint=eastwest;newEdgeStyle={&quot;edgeStyle&quot;:&quot;elbowEdgeStyle&quot;,&quot;elbow&quot;:&quot;vertical&quot;,&quot;curved&quot;:0,&quot;rounded&quot;:0};" parent="aM9ryv3xv72pqoxQDRHE-5" vertex="1">
          <mxGeometry x="45" y="80" width="10" height="360" as="geometry" />
        </mxCell>
        <mxCell id="aM9ryv3xv72pqoxQDRHE-7" value="" style="html=1;verticalAlign=bottom;endArrow=block;edgeStyle=elbowEdgeStyle;elbow=vertical;curved=0;rounded=0;" parent="1" source="aM9ryv3xv72pqoxQDRHE-2" target="aM9ryv3xv72pqoxQDRHE-6" edge="1">
          <mxGeometry relative="1" as="geometry">
            <mxPoint x="195" y="130" as="sourcePoint" />
            <Array as="points">
              <mxPoint x="180" y="120" />
            </Array>
          </mxGeometry>
        </mxCell>
        <mxCell id="VkcUdFEorw2KeyWil5JL-27" value="&amp;lt;&amp;lt;Create&amp;gt;&amp;gt;" style="edgeLabel;html=1;align=center;verticalAlign=middle;resizable=0;points=[];" vertex="1" connectable="0" parent="aM9ryv3xv72pqoxQDRHE-7">
          <mxGeometry x="-0.1076" y="-1" relative="1" as="geometry">
            <mxPoint y="-3" as="offset" />
          </mxGeometry>
        </mxCell>
        <mxCell id="VkcUdFEorw2KeyWil5JL-1" value="Operand::o1" style="shape=umlLifeline;perimeter=lifelinePerimeter;whiteSpace=wrap;html=1;container=0;dropTarget=0;collapsible=0;recursiveResize=0;outlineConnect=0;portConstraint=eastwest;newEdgeStyle={&quot;edgeStyle&quot;:&quot;elbowEdgeStyle&quot;,&quot;elbow&quot;:&quot;vertical&quot;,&quot;curved&quot;:0,&quot;rounded&quot;:0};" vertex="1" parent="1">
          <mxGeometry x="400" y="40" width="100" height="880" as="geometry" />
        </mxCell>
        <mxCell id="VkcUdFEorw2KeyWil5JL-9" style="edgeStyle=elbowEdgeStyle;rounded=0;orthogonalLoop=1;jettySize=auto;html=1;elbow=vertical;curved=0;" edge="1" parent="VkcUdFEorw2KeyWil5JL-1" source="VkcUdFEorw2KeyWil5JL-2" target="VkcUdFEorw2KeyWil5JL-1">
          <mxGeometry relative="1" as="geometry" />
        </mxCell>
        <mxCell id="VkcUdFEorw2KeyWil5JL-2" value="" style="html=1;points=[];perimeter=orthogonalPerimeter;outlineConnect=0;targetShapes=umlLifeline;portConstraint=eastwest;newEdgeStyle={&quot;edgeStyle&quot;:&quot;elbowEdgeStyle&quot;,&quot;elbow&quot;:&quot;vertical&quot;,&quot;curved&quot;:0,&quot;rounded&quot;:0};" vertex="1" parent="VkcUdFEorw2KeyWil5JL-1">
          <mxGeometry x="45" y="120" width="10" height="640" as="geometry" />
        </mxCell>
        <mxCell id="VkcUdFEorw2KeyWil5JL-5" value="Operand::o2" style="shape=umlLifeline;perimeter=lifelinePerimeter;whiteSpace=wrap;html=1;container=0;dropTarget=0;collapsible=0;recursiveResize=0;outlineConnect=0;portConstraint=eastwest;newEdgeStyle={&quot;edgeStyle&quot;:&quot;elbowEdgeStyle&quot;,&quot;elbow&quot;:&quot;vertical&quot;,&quot;curved&quot;:0,&quot;rounded&quot;:0};" vertex="1" parent="1">
          <mxGeometry x="580" y="40" width="100" height="880" as="geometry" />
        </mxCell>
        <mxCell id="VkcUdFEorw2KeyWil5JL-6" value="" style="html=1;points=[];perimeter=orthogonalPerimeter;outlineConnect=0;targetShapes=umlLifeline;portConstraint=eastwest;newEdgeStyle={&quot;edgeStyle&quot;:&quot;elbowEdgeStyle&quot;,&quot;elbow&quot;:&quot;vertical&quot;,&quot;curved&quot;:0,&quot;rounded&quot;:0};" vertex="1" parent="VkcUdFEorw2KeyWil5JL-5">
          <mxGeometry x="45" y="160" width="10" height="240" as="geometry" />
        </mxCell>
        <mxCell id="VkcUdFEorw2KeyWil5JL-7" value="Operand::o3" style="shape=umlLifeline;perimeter=lifelinePerimeter;whiteSpace=wrap;html=1;container=0;dropTarget=0;collapsible=0;recursiveResize=0;outlineConnect=0;portConstraint=eastwest;newEdgeStyle={&quot;edgeStyle&quot;:&quot;elbowEdgeStyle&quot;,&quot;elbow&quot;:&quot;vertical&quot;,&quot;curved&quot;:0,&quot;rounded&quot;:0};" vertex="1" parent="1">
          <mxGeometry x="760" y="40" width="100" height="880" as="geometry" />
        </mxCell>
        <mxCell id="VkcUdFEorw2KeyWil5JL-8" value="" style="html=1;points=[];perimeter=orthogonalPerimeter;outlineConnect=0;targetShapes=umlLifeline;portConstraint=eastwest;newEdgeStyle={&quot;edgeStyle&quot;:&quot;elbowEdgeStyle&quot;,&quot;elbow&quot;:&quot;vertical&quot;,&quot;curved&quot;:0,&quot;rounded&quot;:0};" vertex="1" parent="VkcUdFEorw2KeyWil5JL-7">
          <mxGeometry x="45" y="200" width="10" height="520" as="geometry" />
        </mxCell>
        <mxCell id="VkcUdFEorw2KeyWil5JL-10" value="" style="html=1;verticalAlign=bottom;endArrow=block;edgeStyle=elbowEdgeStyle;elbow=vertical;curved=0;rounded=0;" edge="1" parent="1" target="VkcUdFEorw2KeyWil5JL-1">
          <mxGeometry relative="1" as="geometry">
            <mxPoint x="95" y="160" as="sourcePoint" />
            <Array as="points">
              <mxPoint x="180" y="160" />
            </Array>
            <mxPoint x="265" y="160" as="targetPoint" />
          </mxGeometry>
        </mxCell>
        <mxCell id="VkcUdFEorw2KeyWil5JL-11" value="" style="html=1;verticalAlign=bottom;endArrow=block;edgeStyle=elbowEdgeStyle;elbow=vertical;curved=0;rounded=0;" edge="1" parent="1" target="VkcUdFEorw2KeyWil5JL-5">
          <mxGeometry relative="1" as="geometry">
            <mxPoint x="95" y="200" as="sourcePoint" />
            <Array as="points">
              <mxPoint x="180" y="200" />
            </Array>
            <mxPoint x="265" y="200" as="targetPoint" />
          </mxGeometry>
        </mxCell>
        <mxCell id="VkcUdFEorw2KeyWil5JL-13" value="" style="endArrow=classic;html=1;rounded=0;dashed=1;" edge="1" parent="1">
          <mxGeometry width="50" height="50" relative="1" as="geometry">
            <mxPoint x="270" y="319.9999999999999" as="sourcePoint" />
            <mxPoint x="269.75" y="320" as="targetPoint" />
          </mxGeometry>
        </mxCell>
        <mxCell id="VkcUdFEorw2KeyWil5JL-15" value="&lt;div&gt;BinaryOperator::&lt;/div&gt;&lt;div&gt;br_smallerThan&lt;/div&gt;" style="shape=umlLifeline;perimeter=lifelinePerimeter;whiteSpace=wrap;html=1;container=0;dropTarget=0;collapsible=0;recursiveResize=0;outlineConnect=0;portConstraint=eastwest;newEdgeStyle={&quot;edgeStyle&quot;:&quot;elbowEdgeStyle&quot;,&quot;elbow&quot;:&quot;vertical&quot;,&quot;curved&quot;:0,&quot;rounded&quot;:0};" vertex="1" parent="1">
          <mxGeometry x="940" y="40" width="100" height="880" as="geometry" />
        </mxCell>
        <mxCell id="VkcUdFEorw2KeyWil5JL-16" value="" style="html=1;points=[];perimeter=orthogonalPerimeter;outlineConnect=0;targetShapes=umlLifeline;portConstraint=eastwest;newEdgeStyle={&quot;edgeStyle&quot;:&quot;elbowEdgeStyle&quot;,&quot;elbow&quot;:&quot;vertical&quot;,&quot;curved&quot;:0,&quot;rounded&quot;:0};" vertex="1" parent="VkcUdFEorw2KeyWil5JL-15">
          <mxGeometry x="45" y="520" width="10" height="280" as="geometry" />
        </mxCell>
        <mxCell id="VkcUdFEorw2KeyWil5JL-20" value="Operand::o4" style="shape=umlLifeline;perimeter=lifelinePerimeter;whiteSpace=wrap;html=1;container=0;dropTarget=0;collapsible=0;recursiveResize=0;outlineConnect=0;portConstraint=eastwest;newEdgeStyle={&quot;edgeStyle&quot;:&quot;elbowEdgeStyle&quot;,&quot;elbow&quot;:&quot;vertical&quot;,&quot;curved&quot;:0,&quot;rounded&quot;:0};" vertex="1" parent="1">
          <mxGeometry x="1130" y="40" width="100" height="880" as="geometry" />
        </mxCell>
        <mxCell id="VkcUdFEorw2KeyWil5JL-21" value="" style="html=1;points=[];perimeter=orthogonalPerimeter;outlineConnect=0;targetShapes=umlLifeline;portConstraint=eastwest;newEdgeStyle={&quot;edgeStyle&quot;:&quot;elbowEdgeStyle&quot;,&quot;elbow&quot;:&quot;vertical&quot;,&quot;curved&quot;:0,&quot;rounded&quot;:0};" vertex="1" parent="VkcUdFEorw2KeyWil5JL-20">
          <mxGeometry x="45" y="560" width="10" height="280" as="geometry" />
        </mxCell>
        <mxCell id="VkcUdFEorw2KeyWil5JL-25" value="println" style="shape=process;whiteSpace=wrap;html=1;backgroundOutline=1;" vertex="1" parent="1">
          <mxGeometry x="850" y="500" width="70" height="40" as="geometry" />
        </mxCell>
        <mxCell id="VkcUdFEorw2KeyWil5JL-35" value="" style="endArrow=classic;html=1;rounded=0;" edge="1" parent="1">
          <mxGeometry width="50" height="50" relative="1" as="geometry">
            <mxPoint x="275" y="319.5699999999999" as="sourcePoint" />
            <mxPoint x="449.4999999999998" y="319.56999999999994" as="targetPoint" />
          </mxGeometry>
        </mxCell>
        <mxCell id="VkcUdFEorw2KeyWil5JL-36" value="br_plus.caculate" style="edgeLabel;html=1;align=center;verticalAlign=middle;resizable=0;points=[];" vertex="1" connectable="0" parent="VkcUdFEorw2KeyWil5JL-35">
          <mxGeometry x="-0.0667" y="2" relative="1" as="geometry">
            <mxPoint as="offset" />
          </mxGeometry>
        </mxCell>
        <mxCell id="VkcUdFEorw2KeyWil5JL-37" value="" style="endArrow=classic;html=1;rounded=0;" edge="1" parent="1">
          <mxGeometry width="50" height="50" relative="1" as="geometry">
            <mxPoint x="275.5" y="399.9999999999999" as="sourcePoint" />
            <mxPoint x="624.5" y="399.9999999999999" as="targetPoint" />
          </mxGeometry>
        </mxCell>
        <mxCell id="VkcUdFEorw2KeyWil5JL-38" value="br_plus.caculate" style="edgeLabel;html=1;align=center;verticalAlign=middle;resizable=0;points=[];" vertex="1" connectable="0" parent="VkcUdFEorw2KeyWil5JL-37">
          <mxGeometry x="-0.0667" y="2" relative="1" as="geometry">
            <mxPoint x="-79" y="2" as="offset" />
          </mxGeometry>
        </mxCell>
        <mxCell id="VkcUdFEorw2KeyWil5JL-39" value="" style="endArrow=classic;html=1;rounded=0;dashed=1;" edge="1" parent="1">
          <mxGeometry width="50" height="50" relative="1" as="geometry">
            <mxPoint x="445" y="359.9999999999999" as="sourcePoint" />
            <mxPoint x="275" y="359.9999999999999" as="targetPoint" />
          </mxGeometry>
        </mxCell>
        <mxCell id="VkcUdFEorw2KeyWil5JL-40" value="" style="endArrow=classic;html=1;rounded=0;dashed=1;" edge="1" parent="1">
          <mxGeometry width="50" height="50" relative="1" as="geometry">
            <mxPoint x="629.4999999999998" y="440" as="sourcePoint" />
            <mxPoint x="275" y="439.9999999999999" as="targetPoint" />
          </mxGeometry>
        </mxCell>
        <mxCell id="VkcUdFEorw2KeyWil5JL-41" value="" style="endArrow=classic;html=1;rounded=0;" edge="1" parent="1">
          <mxGeometry width="50" height="50" relative="1" as="geometry">
            <mxPoint x="276" y="479.9999999999999" as="sourcePoint" />
            <mxPoint x="810.5" y="479.9999999999999" as="targetPoint" />
          </mxGeometry>
        </mxCell>
        <mxCell id="VkcUdFEorw2KeyWil5JL-43" value="" style="endArrow=classic;html=1;rounded=0;entryX=0;entryY=0.5;entryDx=0;entryDy=0;" edge="1" parent="1" source="VkcUdFEorw2KeyWil5JL-8" target="VkcUdFEorw2KeyWil5JL-25">
          <mxGeometry width="50" height="50" relative="1" as="geometry">
            <mxPoint x="820" y="520" as="sourcePoint" />
            <mxPoint x="850" y="470" as="targetPoint" />
          </mxGeometry>
        </mxCell>
        <mxCell id="VkcUdFEorw2KeyWil5JL-44" value="" style="html=1;verticalAlign=bottom;endArrow=block;edgeStyle=elbowEdgeStyle;elbow=vertical;curved=0;rounded=0;" edge="1" parent="1">
          <mxGeometry relative="1" as="geometry">
            <mxPoint x="91.25" y="560" as="sourcePoint" />
            <Array as="points">
              <mxPoint x="176.25" y="560" />
            </Array>
            <mxPoint x="989.5000000000002" y="560" as="targetPoint" />
          </mxGeometry>
        </mxCell>
        <mxCell id="VkcUdFEorw2KeyWil5JL-47" value="" style="html=1;verticalAlign=bottom;endArrow=block;edgeStyle=elbowEdgeStyle;elbow=vertical;curved=0;rounded=0;" edge="1" parent="1">
          <mxGeometry relative="1" as="geometry">
            <mxPoint x="94" y="600" as="sourcePoint" />
            <Array as="points">
              <mxPoint x="179" y="600" />
            </Array>
            <mxPoint x="1179.5000000000005" y="600" as="targetPoint" />
          </mxGeometry>
        </mxCell>
        <mxCell id="VkcUdFEorw2KeyWil5JL-48" value="" style="endArrow=classic;html=1;rounded=0;dashed=1;" edge="1" parent="1">
          <mxGeometry width="50" height="50" relative="1" as="geometry">
            <mxPoint x="809.5" y="279.9999999999999" as="sourcePoint" />
            <mxPoint x="273" y="279.9999999999999" as="targetPoint" />
          </mxGeometry>
        </mxCell>
        <mxCell id="VkcUdFEorw2KeyWil5JL-49" value="Message" style="edgeLabel;html=1;align=center;verticalAlign=middle;resizable=0;points=[];" vertex="1" connectable="0" parent="VkcUdFEorw2KeyWil5JL-48">
          <mxGeometry x="-0.6574" y="-2" relative="1" as="geometry">
            <mxPoint as="offset" />
          </mxGeometry>
        </mxCell>
        <mxCell id="VkcUdFEorw2KeyWil5JL-50" value="" style="html=1;verticalAlign=bottom;endArrow=block;edgeStyle=elbowEdgeStyle;elbow=vertical;curved=0;rounded=0;" edge="1" parent="1" target="VkcUdFEorw2KeyWil5JL-7">
          <mxGeometry relative="1" as="geometry">
            <mxPoint x="96" y="240" as="sourcePoint" />
            <Array as="points">
              <mxPoint x="181" y="240" />
            </Array>
            <mxPoint x="630" y="240" as="targetPoint" />
          </mxGeometry>
        </mxCell>
        <mxCell id="VkcUdFEorw2KeyWil5JL-54" value="" style="endArrow=classic;html=1;rounded=0;dashed=1;" edge="1" parent="1" target="VkcUdFEorw2KeyWil5JL-16">
          <mxGeometry width="50" height="50" relative="1" as="geometry">
            <mxPoint x="1170" y="639.9999999999999" as="sourcePoint" />
            <mxPoint x="1000" y="639.9999999999999" as="targetPoint" />
          </mxGeometry>
        </mxCell>
        <mxCell id="VkcUdFEorw2KeyWil5JL-55" value="Message" style="edgeLabel;html=1;align=center;verticalAlign=middle;resizable=0;points=[];" vertex="1" connectable="0" parent="VkcUdFEorw2KeyWil5JL-54">
          <mxGeometry x="-0.023" y="-3" relative="1" as="geometry">
            <mxPoint as="offset" />
          </mxGeometry>
        </mxCell>
        <mxCell id="VkcUdFEorw2KeyWil5JL-56" value="" style="endArrow=classic;html=1;rounded=0;dashed=1;" edge="1" parent="1">
          <mxGeometry width="50" height="50" relative="1" as="geometry">
            <mxPoint x="985" y="679.9999999999999" as="sourcePoint" />
            <mxPoint x="810" y="680" as="targetPoint" />
          </mxGeometry>
        </mxCell>
        <mxCell id="VkcUdFEorw2KeyWil5JL-57" value="br_smallerThan.caculate" style="edgeLabel;html=1;align=center;verticalAlign=middle;resizable=0;points=[];" vertex="1" connectable="0" parent="VkcUdFEorw2KeyWil5JL-56">
          <mxGeometry x="-0.023" y="-3" relative="1" as="geometry">
            <mxPoint as="offset" />
          </mxGeometry>
        </mxCell>
        <mxCell id="VkcUdFEorw2KeyWil5JL-58" value="" style="endArrow=classic;html=1;rounded=0;dashed=1;" edge="1" parent="1" target="VkcUdFEorw2KeyWil5JL-2">
          <mxGeometry width="50" height="50" relative="1" as="geometry">
            <mxPoint x="985" y="719.9999999999999" as="sourcePoint" />
            <mxPoint x="460" y="720" as="targetPoint" />
          </mxGeometry>
        </mxCell>
        <mxCell id="VkcUdFEorw2KeyWil5JL-59" value="br_smallerThan.caculate" style="edgeLabel;html=1;align=center;verticalAlign=middle;resizable=0;points=[];" vertex="1" connectable="0" parent="VkcUdFEorw2KeyWil5JL-58">
          <mxGeometry x="-0.023" y="-3" relative="1" as="geometry">
            <mxPoint x="174" as="offset" />
          </mxGeometry>
        </mxCell>
        <mxCell id="VkcUdFEorw2KeyWil5JL-60" value="" style="endArrow=classic;html=1;rounded=0;" edge="1" parent="1">
          <mxGeometry width="50" height="50" relative="1" as="geometry">
            <mxPoint x="815" y="760" as="sourcePoint" />
            <mxPoint x="985.0000000000002" y="760" as="targetPoint" />
          </mxGeometry>
        </mxCell>
        <mxCell id="VkcUdFEorw2KeyWil5JL-61" value="Return" style="edgeLabel;html=1;align=center;verticalAlign=middle;resizable=0;points=[];" vertex="1" connectable="0" parent="VkcUdFEorw2KeyWil5JL-60">
          <mxGeometry x="-0.0281" relative="1" as="geometry">
            <mxPoint as="offset" />
          </mxGeometry>
        </mxCell>
        <mxCell id="VkcUdFEorw2KeyWil5JL-62" value="" style="endArrow=classic;html=1;rounded=0;" edge="1" parent="1">
          <mxGeometry width="50" height="50" relative="1" as="geometry">
            <mxPoint x="450" y="799.9999999999999" as="sourcePoint" />
            <mxPoint x="984.5" y="799.9999999999999" as="targetPoint" />
          </mxGeometry>
        </mxCell>
        <mxCell id="VkcUdFEorw2KeyWil5JL-63" value="&amp;lt;&amp;lt;Return&amp;gt;&amp;gt;" style="edgeLabel;html=1;align=center;verticalAlign=middle;resizable=0;points=[];" vertex="1" connectable="0" parent="VkcUdFEorw2KeyWil5JL-62">
          <mxGeometry x="-0.6881" relative="1" as="geometry">
            <mxPoint as="offset" />
          </mxGeometry>
        </mxCell>
        <mxCell id="VkcUdFEorw2KeyWil5JL-64" value="" style="endArrow=classic;html=1;rounded=0;" edge="1" parent="1">
          <mxGeometry width="50" height="50" relative="1" as="geometry">
            <mxPoint x="1000.0000000000002" y="839.13" as="sourcePoint" />
            <mxPoint x="1180" y="839.13" as="targetPoint" />
          </mxGeometry>
        </mxCell>
        <mxCell id="VkcUdFEorw2KeyWil5JL-70" value="println" style="shape=process;whiteSpace=wrap;html=1;backgroundOutline=1;" vertex="1" parent="1">
          <mxGeometry x="1215" y="860" width="70" height="40" as="geometry" />
        </mxCell>
        <mxCell id="VkcUdFEorw2KeyWil5JL-71" value="" style="endArrow=classic;html=1;rounded=0;entryX=0;entryY=0.5;entryDx=0;entryDy=0;" edge="1" parent="1" target="VkcUdFEorw2KeyWil5JL-70">
          <mxGeometry width="50" height="50" relative="1" as="geometry">
            <mxPoint x="1180" y="880" as="sourcePoint" />
            <mxPoint x="1215" y="830" as="targetPoint" />
          </mxGeometry>
        </mxCell>
        <mxCell id="VkcUdFEorw2KeyWil5JL-73" value="&amp;lt;&amp;lt;Create&amp;gt;&amp;gt;" style="edgeLabel;html=1;align=center;verticalAlign=middle;resizable=0;points=[];" vertex="1" connectable="0" parent="1">
          <mxGeometry x="170.0021739130435" y="160" as="geometry" />
        </mxCell>
        <mxCell id="VkcUdFEorw2KeyWil5JL-74" value="&amp;lt;&amp;lt;Create&amp;gt;&amp;gt;" style="edgeLabel;html=1;align=center;verticalAlign=middle;resizable=0;points=[];" vertex="1" connectable="0" parent="1">
          <mxGeometry x="170.0021739130435" y="200" as="geometry" />
        </mxCell>
        <mxCell id="VkcUdFEorw2KeyWil5JL-75" value="&amp;lt;&amp;lt;Create&amp;gt;&amp;gt;" style="edgeLabel;html=1;align=center;verticalAlign=middle;resizable=0;points=[];" vertex="1" connectable="0" parent="1">
          <mxGeometry x="170.0021739130435" y="240" as="geometry" />
        </mxCell>
        <mxCell id="VkcUdFEorw2KeyWil5JL-76" value="&amp;lt;&amp;lt;Create&amp;gt;&amp;gt;" style="edgeLabel;html=1;align=center;verticalAlign=middle;resizable=0;points=[];" vertex="1" connectable="0" parent="1">
          <mxGeometry x="170.0021739130435" y="560" as="geometry" />
        </mxCell>
        <mxCell id="VkcUdFEorw2KeyWil5JL-77" value="&amp;lt;&amp;lt;Create&amp;gt;&amp;gt;" style="edgeLabel;html=1;align=center;verticalAlign=middle;resizable=0;points=[];" vertex="1" connectable="0" parent="1">
          <mxGeometry x="170.0021739130435" y="600" as="geometry" />
        </mxCell>
        <mxCell id="VkcUdFEorw2KeyWil5JL-78" value="&amp;lt;&amp;lt;Return&amp;gt;&amp;gt;" style="edgeLabel;html=1;align=center;verticalAlign=middle;resizable=0;points=[];" vertex="1" connectable="0" parent="1">
          <mxGeometry x="1079.9982608695652" y="840" as="geometry" />
        </mxCell>
        <mxCell id="VkcUdFEorw2KeyWil5JL-79" value="&amp;lt;&amp;lt;Return&amp;gt;&amp;gt;" style="edgeLabel;html=1;align=center;verticalAlign=middle;resizable=0;points=[];" vertex="1" connectable="0" parent="1">
          <mxGeometry x="539.9982608695652" y="440" as="geometry" />
        </mxCell>
        <mxCell id="VkcUdFEorw2KeyWil5JL-80" value="&amp;lt;&amp;lt;Return&amp;gt;&amp;gt;" style="edgeLabel;html=1;align=center;verticalAlign=middle;resizable=0;points=[];" vertex="1" connectable="0" parent="1">
          <mxGeometry x="359.99826086956523" y="480" as="geometry" />
        </mxCell>
        <mxCell id="VkcUdFEorw2KeyWil5JL-81" value="&amp;lt;&amp;lt;Return&amp;gt;&amp;gt;" style="edgeLabel;html=1;align=center;verticalAlign=middle;resizable=0;points=[];" vertex="1" connectable="0" parent="1">
          <mxGeometry x="359.99826086956523" y="360" as="geometry" />
        </mxCell>
      </root>
    </mxGraphModel>
  </diagram>
</mxfile>
